<svg width="20" height="20" viewBox="0 0 20 20" fill="none" xmlns="http://www.w3.org/2000/svg">
<g clip-path="url(#clip0_1246_1080)">
<mask id="path-1-inside-1_1246_1080" fill="white">
<path d="M18.6778 9.73891C16.8056 6.27779 13.5222 4.18335 9.8889 4.18335C6.25557 4.18335 2.96668 6.27779 1.11112 9.73891L0.955566 10L1.10001 10.2667C2.97223 13.7278 6.25557 15.8222 9.8889 15.8222C13.5222 15.8222 16.8111 13.7556 18.6778 10.2667L18.8222 10L18.6778 9.73891ZM9.8889 14.6833C6.76112 14.6833 3.8889 12.9389 2.22223 10C3.8889 7.06113 6.76112 5.31668 9.8889 5.31668C13.0167 5.31668 15.8556 7.06668 17.55 10C15.8556 12.9389 13.0111 14.6833 9.8889 14.6833Z"/>
</mask>
<path d="M18.6778 9.73891C16.8056 6.27779 13.5222 4.18335 9.8889 4.18335C6.25557 4.18335 2.96668 6.27779 1.11112 9.73891L0.955566 10L1.10001 10.2667C2.97223 13.7278 6.25557 15.8222 9.8889 15.8222C13.5222 15.8222 16.8111 13.7556 18.6778 10.2667L18.8222 10L18.6778 9.73891ZM9.8889 14.6833C6.76112 14.6833 3.8889 12.9389 2.22223 10C3.8889 7.06113 6.76112 5.31668 9.8889 5.31668C13.0167 5.31668 15.8556 7.06668 17.55 10C15.8556 12.9389 13.0111 14.6833 9.8889 14.6833Z" fill="#28303F"/>
<path d="M18.6778 9.73891L16.9187 10.6905L16.9232 10.6988L16.9277 10.707L18.6778 9.73891ZM1.11112 9.73891L2.82932 10.7625L2.85244 10.7237L2.87379 10.6839L1.11112 9.73891ZM0.955566 10L-0.762636 8.9764L-1.34445 9.95302L-0.803017 10.9526L0.955566 10ZM1.10001 10.2667L2.85914 9.31512L2.85859 9.31412L1.10001 10.2667ZM18.6778 10.2667L16.9192 9.3141L16.9143 9.32317L18.6778 10.2667ZM18.8222 10L20.5808 10.9526L21.1023 9.98991L20.5723 9.03189L18.8222 10ZM2.22223 10L0.482518 9.01341L-0.0769939 10L0.482518 10.9866L2.22223 10ZM17.55 10L19.2827 10.999L19.8592 9.99907L19.2818 8.99962L17.55 10ZM20.4369 8.78734C18.2566 4.75667 14.3396 2.18335 9.8889 2.18335V6.18335C12.7049 6.18335 15.3545 7.79892 16.9187 10.6905L20.4369 8.78734ZM9.8889 2.18335C5.44037 2.18335 1.51374 4.75507 -0.651543 8.79391L2.87379 10.6839C4.41961 7.80052 7.07076 6.18335 9.8889 6.18335V2.18335ZM-0.607081 8.71529L-0.762636 8.9764L2.67377 11.0236L2.82932 10.7625L-0.607081 8.71529ZM-0.803017 10.9526L-0.658573 11.2192L2.85859 9.31412L2.71415 9.04745L-0.803017 10.9526ZM-0.659115 11.2182C1.5212 15.2489 5.43823 17.8222 9.8889 17.8222V13.8222C7.07291 13.8222 4.42326 12.2067 2.85914 9.31512L-0.659115 11.2182ZM9.8889 17.8222C14.3307 17.8222 18.2613 15.2847 20.4412 11.2102L16.9143 9.32317C15.361 12.2265 12.7138 13.8222 9.8889 13.8222V17.8222ZM20.4364 11.2193L20.5808 10.9526L17.0637 9.04745L16.9192 9.31412L20.4364 11.2193ZM20.5723 9.03189L20.4279 8.77078L16.9277 10.707L17.0722 10.9681L20.5723 9.03189ZM9.8889 12.6833C7.54248 12.6833 5.30473 11.3812 3.96195 9.01341L0.482518 10.9866C2.47307 14.4966 5.97977 16.6833 9.8889 16.6833V12.6833ZM3.96195 10.9866C5.30473 8.61886 7.54248 7.31668 9.8889 7.31668V3.31668C5.97977 3.31668 2.47307 5.5034 0.482518 9.01341L3.96195 10.9866ZM9.8889 7.31668C12.2234 7.31668 14.4398 8.61417 15.8182 11.0004L19.2818 8.99962C17.2714 5.51919 13.8099 3.31668 9.8889 3.31668V7.31668ZM15.8174 9.00104C14.4404 11.3892 12.2203 12.6833 9.8889 12.6833V16.6833C13.802 16.6833 17.2707 14.4886 19.2827 10.999L15.8174 9.00104Z" fill="black" mask="url(#path-1-inside-1_1246_1080)"/>
<mask id="path-3-inside-2_1246_1080" fill="white">
<path d="M10.05 6.20555C9.29675 6.21104 8.56201 6.43965 7.93859 6.86248C7.31517 7.28531 6.83104 7.88341 6.54734 8.58124C6.26364 9.27906 6.1931 10.0453 6.34463 10.7832C6.49616 11.5211 6.86296 12.1975 7.39871 12.7271C7.93446 13.2566 8.61512 13.6155 9.35472 13.7584C10.0943 13.9014 10.8597 13.8219 11.5542 13.5301C12.2486 13.2383 12.8411 12.7472 13.2566 12.1189C13.6722 11.4906 13.8922 10.7533 13.8889 9.99999C13.8867 9.49857 13.7856 9.0025 13.5914 8.54022C13.3971 8.07794 13.1136 7.65854 12.757 7.30605C12.4003 6.95356 11.9777 6.6749 11.5132 6.48606C11.0486 6.29721 10.5514 6.20189 10.05 6.20555ZM10.05 12.7167C9.51794 12.7112 8.99934 12.5486 8.55936 12.2493C8.11938 11.9501 7.77764 11.5275 7.57705 11.0346C7.37646 10.5418 7.32597 10.0006 7.43192 9.47918C7.53787 8.95773 7.79554 8.47921 8.17256 8.10372C8.54959 7.72823 9.02916 7.47252 9.55104 7.36869C10.0729 7.26487 10.6138 7.31757 11.1059 7.52017C11.5979 7.72277 12.0191 8.06624 12.3166 8.50744C12.614 8.94864 12.7745 9.46789 12.7778 9.99999C12.7793 10.3581 12.7097 10.7129 12.573 11.0439C12.4363 11.3749 12.2352 11.6755 11.9815 11.9282C11.7277 12.1809 11.4264 12.3807 11.0948 12.5161C10.7632 12.6514 10.4081 12.7196 10.05 12.7167Z"/>
</mask>
<path d="M10.05 6.20555C9.29675 6.21104 8.56201 6.43965 7.93859 6.86248C7.31517 7.28531 6.83104 7.88341 6.54734 8.58124C6.26364 9.27906 6.1931 10.0453 6.34463 10.7832C6.49616 11.5211 6.86296 12.1975 7.39871 12.7271C7.93446 13.2566 8.61512 13.6155 9.35472 13.7584C10.0943 13.9014 10.8597 13.8219 11.5542 13.5301C12.2486 13.2383 12.8411 12.7472 13.2566 12.1189C13.6722 11.4906 13.8922 10.7533 13.8889 9.99999C13.8867 9.49857 13.7856 9.0025 13.5914 8.54022C13.3971 8.07794 13.1136 7.65854 12.757 7.30605C12.4003 6.95356 11.9777 6.6749 11.5132 6.48606C11.0486 6.29721 10.5514 6.20189 10.05 6.20555ZM10.05 12.7167C9.51794 12.7112 8.99934 12.5486 8.55936 12.2493C8.11938 11.9501 7.77764 11.5275 7.57705 11.0346C7.37646 10.5418 7.32597 10.0006 7.43192 9.47918C7.53787 8.95773 7.79554 8.47921 8.17256 8.10372C8.54959 7.72823 9.02916 7.47252 9.55104 7.36869C10.0729 7.26487 10.6138 7.31757 11.1059 7.52017C11.5979 7.72277 12.0191 8.06624 12.3166 8.50744C12.614 8.94864 12.7745 9.46789 12.7778 9.99999C12.7793 10.3581 12.7097 10.7129 12.573 11.0439C12.4363 11.3749 12.2352 11.6755 11.9815 11.9282C11.7277 12.1809 11.4264 12.3807 11.0948 12.5161C10.7632 12.6514 10.4081 12.7196 10.05 12.7167Z" fill="#28303F"/>
<path d="M10.05 6.20555L10.0281 3.20563L10.05 6.20555ZM13.8889 9.99999L10.8889 10.013L13.8889 9.99999ZM10.05 12.7167L10.0191 15.7165L10.0254 15.7166L10.05 12.7167ZM12.7778 9.99999L15.7778 9.98757L15.7777 9.98131L12.7778 9.99999ZM10.0281 3.20563C8.68191 3.21545 7.3688 3.624 6.25463 4.37968L9.62254 9.34528C9.75523 9.25529 9.9116 9.20664 10.0719 9.20547L10.0281 3.20563ZM6.25463 4.37968C5.14047 5.13536 4.27524 6.20426 3.76823 7.45139L9.32645 9.71108C9.38683 9.56256 9.48986 9.43527 9.62254 9.34528L6.25463 4.37968ZM3.76823 7.45139C3.26121 8.69852 3.13514 10.0679 3.40595 11.3867L9.28331 10.1797C9.25106 10.0227 9.26607 9.85959 9.32645 9.71108L3.76823 7.45139ZM3.40595 11.3867C3.67676 12.7054 4.3323 13.9143 5.28978 14.8607L9.50764 10.5934C9.39362 10.4807 9.31556 10.3368 9.28331 10.1797L3.40595 11.3867ZM5.28978 14.8607C6.24725 15.8071 7.4637 16.4485 8.7855 16.7039L9.92394 10.8129C9.76653 10.7825 9.62167 10.7061 9.50764 10.5934L5.28978 14.8607ZM8.7855 16.7039C10.1073 16.9594 11.4752 16.8174 12.7163 16.2959L10.392 10.7643C10.2442 10.8264 10.0813 10.8434 9.92394 10.8129L8.7855 16.7039ZM12.7163 16.2959C13.9574 15.7744 15.0162 14.8967 15.7588 13.7739L10.7544 10.464C10.6659 10.5977 10.5398 10.7022 10.392 10.7643L12.7163 16.2959ZM15.7588 13.7739C16.5015 12.651 16.8947 11.3332 16.8889 9.98695L10.8889 10.013C10.8896 10.1733 10.8428 10.3303 10.7544 10.464L15.7588 13.7739ZM16.8889 9.98695C16.885 9.09082 16.7043 8.20427 16.3571 7.37809L10.8256 9.70235C10.867 9.80074 10.8885 9.90631 10.8889 10.013L16.8889 9.98695ZM16.3571 7.37809C16.01 6.55192 15.5032 5.80238 14.8659 5.17241L10.648 9.43968C10.7239 9.51471 10.7843 9.60397 10.8256 9.70235L16.3571 7.37809ZM14.8659 5.17241C14.2286 4.54245 13.4732 4.04444 12.643 3.70695L10.3833 9.26517C10.4822 9.30536 10.5721 9.36466 10.648 9.43968L14.8659 5.17241ZM12.643 3.70695C11.8128 3.36945 10.9242 3.19909 10.0281 3.20563L10.0719 9.20547C10.1786 9.20469 10.2845 9.22497 10.3833 9.26517L12.643 3.70695ZM10.0809 9.71682C10.1401 9.71743 10.1977 9.73549 10.2466 9.76874L6.87215 14.7299C7.801 15.3617 8.89582 15.7049 10.0191 15.7165L10.0809 9.71682ZM10.2466 9.76874C10.2955 9.80199 10.3334 9.84895 10.3557 9.90371L4.79837 12.1655C5.22184 13.206 5.9433 14.0981 6.87215 14.7299L10.2466 9.76874ZM10.3557 9.90371C10.378 9.95847 10.3836 10.0186 10.3718 10.0765L4.49199 8.88183C4.26831 9.98268 4.3749 11.1251 4.79837 12.1655L10.3557 9.90371ZM10.3718 10.0765C10.3601 10.1345 10.3314 10.1876 10.2896 10.2294L6.05558 5.97807C5.25964 6.77077 4.71567 7.78098 4.49199 8.88183L10.3718 10.0765ZM10.2896 10.2294C10.2477 10.2711 10.1944 10.2995 10.1364 10.311L8.96569 4.42635C7.86394 4.64553 6.85152 5.18538 6.05558 5.97807L10.2896 10.2294ZM10.1364 10.311C10.0784 10.3226 10.0183 10.3167 9.96363 10.2942L12.2481 4.74613C11.2094 4.31842 10.0674 4.20717 8.96569 4.42635L10.1364 10.311ZM9.96363 10.2942C9.90896 10.2717 9.86216 10.2335 9.82911 10.1845L14.804 6.83037C14.176 5.89895 13.2869 5.17385 12.2481 4.74613L9.96363 10.2942ZM9.82911 10.1845C9.79606 10.1355 9.77823 10.0778 9.77786 10.0187L15.7777 9.98131C15.7707 8.85799 15.432 7.76178 14.804 6.83037L9.82911 10.1845ZM9.77783 10.0124C9.77766 9.97344 9.78524 9.93482 9.80012 9.8988L15.3458 12.1891C15.6341 11.4911 15.7809 10.7428 15.7778 9.98757L9.77783 10.0124ZM9.80012 9.8988C9.81499 9.86278 9.83688 9.83007 9.86449 9.80256L14.0985 14.0539C14.6336 13.5209 15.0575 12.8871 15.3458 12.1891L9.80012 9.8988ZM9.86449 9.80256C9.8921 9.77506 9.9249 9.75332 9.96099 9.73859L12.2286 15.2936C12.9278 15.0082 13.5634 14.5868 14.0985 14.0539L9.86449 9.80256ZM9.96099 9.73859C9.99707 9.72386 10.0357 9.71644 10.0747 9.71676L10.0254 15.7166C10.7805 15.7228 11.5294 15.579 12.2286 15.2936L9.96099 9.73859Z" fill="black" mask="url(#path-3-inside-2_1246_1080)"/>
</g>
<defs>
<clipPath id="clip0_1246_1080">
<rect width="20" height="20" fill="white"/>
</clipPath>
</defs>
</svg>
