<svg width="20" height="16" viewBox="0 0 20 16" fill="none" xmlns="http://www.w3.org/2000/svg">
<path d="M3.33341 1.33334L16.6667 14.6667M11.6667 9.86342C11.2245 10.2593 10.6404 10.5 10.0001 10.5C8.61937 10.5 7.50008 9.38071 7.50008 8C7.50008 7.35971 7.74079 6.77563 8.13666 6.33334M16.3399 11.0064C16.816 10.5919 17.2419 10.1749 17.6087 9.78909C18.575 8.77236 18.575 7.22765 17.6087 6.21092C15.9788 4.49611 13.1797 2.16667 10.0001 2.16667C9.25727 2.16667 8.53522 2.2938 7.844 2.51054M5.41675 3.66949C4.20128 4.44537 3.16478 5.39732 2.3915 6.21092C1.42516 7.22764 1.42516 8.77236 2.3915 9.78909C4.02132 11.5039 6.82048 13.8333 10.0001 13.8333C11.5568 13.8333 13.0224 13.2749 14.3041 12.5037" stroke="#28303F" stroke-width="1.5" stroke-linecap="round"/>
</svg>
